<svg xmlns="http://www.w3.org/2000/svg" version="1.1" xmlns:xlink="http://www.w3.org/1999/xlink" viewBox="0 0 200 200"><rect width="200" height="200" fill="url('#gradient')"></rect><defs><linearGradient id="gradient" gradientTransform="rotate(222 0.5 0.5)"><stop offset="0%" stop-color="#669494"></stop><stop offset="100%" stop-color="#3694d7"></stop></linearGradient></defs><g><g fill="#8c8438" transform="matrix(5.937349397590362,0,0,5.937349397590362,16.636644130442505,142.21392987607473)" stroke="#2eca2a" stroke-width="0.55"><path d="M12.96-14.22L12.96 0L9.55 0L9.55-5.94L4.50-5.94L4.50 0L1.07 0L1.07-14.22L4.50-14.22L4.50-8.57L9.55-8.57L9.55-14.22L12.96-14.22ZM27.01-14.22L27.01 0L23.60 0L23.60-5.94L18.55-5.94L18.55 0L15.13 0L15.13-14.22L18.55-14.22L18.55-8.57L23.60-8.57L23.60-14.22L27.01-14.22Z"></path></g></g></svg>